<?xml version="1.0" standalone="no"?><!DOCTYPE svg PUBLIC "-//W3C//DTD SVG 1.1//EN" "http://www.w3.org/Graphics/SVG/1.1/DTD/svg11.dtd"><svg t="1624864527441" class="icon" viewBox="0 0 1024 1024" version="1.1" xmlns="http://www.w3.org/2000/svg" p-id="2454" xmlns:xlink="http://www.w3.org/1999/xlink" width="64" height="64"><defs><style type="text/css"></style></defs><path d="M1007.067136 541.550592c-2.637824-24.645632-25.800704-41.53344-51.830784-41.53344-12.382208 1.482752-23.508992 7.532544-31.420416 17.231872-7.79264 9.699328-11.34592 21.907456-10.088448 34.340864 9.859072 90.935296-16.510976 180.383744-74.30144 251.81184-57.792512 71.53664-139.892736 116.260864-231.395328 126.070784-25.68192 2.852864-44.25728 25.899008-41.504768 51.453952 1.37216 12.439552 7.452672 23.621632 17.199104 31.264768 8.25344 6.729728 18.80064 10.38336 29.468672 10.38336l5.16096-0.227328c116.383744-12.550144 220.839936-69.48864 294.342656-160.417792 73.383936-90.935296 106.86464-204.685312 94.369792-320.37888z" fill="#13227a" p-id="2455"></path><path d="M598.51776 841.27744c67.764224-7.303168 128.651264-40.501248 171.538432-93.442048 42.881024-52.9408 62.375936-119.343104 55.035904-186.775552-2.75456-24.756224-24.881152-42.55744-51.828736-41.414656-12.384256 1.482752-23.502848 7.5264-31.41632 17.225728-7.796736 9.699328-11.352064 21.905408-10.094592 34.34496 4.704256 42.67008-7.68 84.658176-34.85696 118.089728-27.060224 33.542144-65.585152 54.534144-108.240896 59.097088-12.386304 1.253376-23.62368 7.18848-31.645696 17.002496a46.391296 46.391296 0 0 0-10.207232 34.57024c2.637824 23.732224 22.704128 41.53344 46.665728 41.53344l5.050368-0.231424z m-14.333952-171.030528c0.57344 0 1.142784-0.11264 1.72032-0.11264 6.53312-0.454656 12.496896-3.42016 16.621568-8.327168l62.496768-71.196672c3.897344-4.448256 5.961728-10.039296 5.961728-15.9744 0-6.957056-2.983936-13.576192-8.370176-18.253824l-79.005696-68.687872c-6.42048-5.474304-15.020032-6.610944-22.585344-4.44416 2.060288-7.532544 3.549184-15.292416 2.977792-23.392256-1.257472-19.052544-9.977856-36.397056-24.4224-49.057792l-26.832896-23.277568h1.49504c5.95968-0.456704 11.464704-3.080192 15.478784-7.643136l5.95968-6.846464c0.804864-0.915456 1.03424-1.939456 1.605632-2.852864l28.782592 24.9856c5.044224 4.452352 11.350016 6.729728 17.999872 6.729728h1.949696c7.340032-0.45056 13.991936-3.75808 18.917376-9.353216l90.13248-102.684672a26.99264 26.99264 0 0 0 6.762496-17.911808l-0.11264-1.826816c-0.34816-5.70368-2.8672-10.842112-6.539264-15.17568 4.243456 2.623488 8.945664 4.333568 14.102528 4.333568 0.688128 0 1.261568 0 1.949696-0.110592 7.340032-0.456704 13.991936-3.764224 18.804736-9.242624l90.243072-102.795264c4.814848-5.476352 7.223296-12.552192 6.651904-19.85536a27.111424 27.111424 0 0 0-9.289728-18.712576L700.5696 7.133184c-5.505024-4.796416-12.61568-7.421952-19.955712-6.735872-7.340032 0.456704-13.985792 3.883008-18.804736 9.35936l-90.126336 102.68672a27.308032 27.308032 0 0 0-6.762496 19.847168c0.339968 5.705728 2.977792 10.842112 6.762496 15.294464-11.237376-6.9632-26.03008-5.36576-34.9696 4.790272l-90.243072 102.795264c-9.977856 11.298816-8.712192 28.64128 2.637824 38.56384l19.49696 16.88576c-0.80896 0.68608-1.837056 1.142784-2.639872 1.9456l-5.961728 6.957056c-3.903488 4.452352-5.961728 10.268672-5.505024 16.318464 0.11264 0.907264 0.913408 1.363968 1.142784 2.277376l-28.895232-25.212928c-14.444544-12.55424-32.903168-19.052544-52.051968-17.455104-13.879296 1.024-26.259456 6.959104-37.267456 15.058944-1.03424-4.909056-3.213312-9.58464-7.340032-13.008896l-18.688-16.31232c-10.09664-8.78592-25.571328-7.76192-34.287616 2.39616l-32.792576 37.308416a24.109056 24.109056 0 0 0-5.851136 17.57184c0.4608 6.500352 3.328 12.435456 8.259584 16.539648l18.688 16.318464v0.110592c3.897344 3.426304 8.947712 4.79232 13.991936 5.249024-6.651904 11.9808-11.008 24.9856-9.977856 38.907904 1.261568 19.052544 9.977856 36.39296 24.4224 48.9472l28.43648 24.758272c-6.422528-0.11264-12.726272 1.826816-17.42848 6.957056l-5.963776 6.846464c-1.028096 1.142784-1.488896 2.512896-2.177024 3.766272l-19.607552-17.115136a27.631616 27.631616 0 0 0-19.94752-6.729728c-7.34208 0.569344-13.991936 3.878912-18.806784 9.355264l-90.126336 102.801408c-4.818944 5.588992-7.227392 12.546048-6.766592 19.849216 0.346112 5.822464 2.983936 10.952704 6.766592 15.286272-11.237376-6.957056-26.03008-5.586944-34.975744 4.681728l-90.124288 102.801408c-9.975808 11.292672-8.716288 28.635136 2.637824 38.445056l117.071872 101.771264c5.16096 4.34176 11.466752 6.73792 17.999872 6.73792h1.835008c7.34208-0.575488 13.991936-3.76832 18.808832-9.361408l90.124288-102.797312a26.998784 26.998784 0 0 0 6.762496-17.90976l-0.110592-2.056192c-0.34816-5.70368-2.985984-10.723328-6.535168-14.946304 4.356096 2.623488 9.05216 4.450304 14.331904 4.450304h1.72032c7.333888-0.57344 13.985792-3.883008 18.80064-9.35936l90.13248-102.797312a27.32032 27.32032 0 0 0 6.760448-19.85536c-0.458752-7.297024-3.782656-13.914112-9.28768-18.706432l-29.007872-25.214976c1.14688-0.913408 2.51904-1.486848 3.438592-2.510848l5.961728-6.848512a21.583872 21.583872 0 0 0 5.505024-16.19968c0-0.68608-0.79872-1.142784-0.919552-1.826816l27.518976 23.84896a71.786496 71.786496 0 0 0 47.132672 17.57184c1.718272 0 3.323904-0.118784 5.042176-0.229376 8.024064-0.57344 15.593472-3.080192 22.81472-6.049792-1.140736 7.870464 1.148928 16.089088 7.688192 21.792768l78.88896 68.56704a24.17664 24.17664 0 0 0 15.937536 5.935104z" fill="#13227a" p-id="2456"></path></svg>